<svg preserveAspectRatio="xMidYMid meet" viewBox="221.18399999999997 344.064 940.0319999999999 253.952" xmlns="http://www.w3.org/2000/svg" version="1.0" style="max-height: 500px" width="940.0319999999999" height="253.952">

<g stroke="none" fill="#000000" transform="translate(0.000000,1024.000000) scale(0.100000,-0.100000)">
<path d="M3432 6723 c-28 -11 -37 -52 -42 -194 l-5 -146 -99 74 c-55 40 -107&#10;73 -115 73 -9 0 -39 -22 -66 -50 -58 -59 -62 -52 86 -161 55 -41 122 -91 150&#10;-112 l49 -37 0 -196 c0 -109 -4 -193 -9 -190 -23 14 -42 85 -56 207 -9 80 -20&#10;137 -28 142 -6 4 -38 23 -70 42 -68 40 -73 35 -64 -51 3 -33 2 -54 -5 -54 -5&#10;0 -37 16 -69 35 -33 19 -62 35 -65 35 -7 0 -4 -73 6 -114 7 -32 32 -61 140&#10;-164 72 -68 129 -127 126 -129 -3 -3 -81 36 -174 87 l-169 92 -12 86 c-6 48&#10;-16 132 -21 187 -15 149 -14 145 -61 145 -41 0 -102 -20 -113 -38 -3 -5 1 -63&#10;9 -128 8 -66 15 -122 15 -126 0 -5 -62 30 -139 77 -76 47 -143 85 -148 85 -4&#10;0 -25 -11 -46 -25 -30 -21 -37 -32 -37 -58 1 -18 7 -43 14 -56 13 -24 141&#10;-100 245 -147 30 -13 52 -27 49 -29 -3 -3 -63 -21 -134 -41 -71 -19 -137 -37&#10;-148 -40 -15 -5 -17 -13 -12 -48 4 -22 11 -56 17 -74 9 -28 15 -33 33 -28 11&#10;4 110 29 218 57 l198 50 112 -62 c62 -35 132 -72 155 -83 40 -20 61 -46 26&#10;-31 -10 4 -56 12 -103 19 -63 9 -100 20 -143 45 -47 27 -64 32 -93 26 -50 -9&#10;-135 -48 -131 -60 2 -5 24 -17 48 -26 24 -9 45 -23 46 -30 2 -8 -15 -27 -37&#10;-42 -22 -16 -40 -35 -40 -43 0 -8 25 -25 56 -39 l56 -25 118 35 c92 28 128 34&#10;166 30 27 -4 50 -8 52 -10 2 -2 -11 -11 -30 -21 -18 -9 -77 -46 -131 -80 l-98&#10;-64 -92 36 c-51 19 -152 56 -226 81 l-134 46 -18 -24 c-10 -13 -26 -43 -35&#10;-67 -21 -54 -24 -52 153 -122 74 -29 133 -54 131 -55 -2 -2 -62 -34 -133 -70&#10;-158 -81 -176 -96 -168 -139 7 -33 31 -58 75 -77 25 -10 38 -5 164 70 75 45&#10;138 80 140 78 2 -2 -2 -58 -8 -125 -7 -77 -8 -126 -2 -132 16 -16 144 -44 154&#10;-34 5 5 17 90 26 189 9 99 21 185 28 192 16 17 308 194 313 190 2 -2 -10 -21&#10;-27 -42 -16 -21 -30 -41 -30 -45 0 -4 -33 -32 -73 -63 -104 -80 -104 -80 -112&#10;-174 -9 -97 -3 -101 64 -48 24 19 47 35 51 35 4 0 6 -24 4 -53 -3 -80 3 -84&#10;75 -47 34 18 65 40 70 49 5 9 14 59 20 111 10 89 36 200 46 200 3 0 5 -85 5&#10;-188 l0 -188 -144 -98 c-80 -53 -150 -104 -156 -111 -10 -11 -1 -25 40 -69 36&#10;-38 57 -53 68 -49 10 4 58 35 109 70 51 35 96 63 101 63 4 0 9 -59 11 -131 1&#10;-73 7 -142 11 -155 20 -51 108 -60 141 -14 16 21 19 46 20 153 0 70 4 127 8&#10;127 3 0 83 -41 176 -91 94 -50 177 -91 185 -91 8 -1 148 68 310 152 162 83&#10;460 237 661 341 202 104 372 196 378 203 7 9 11 42 9 83 l-3 70 -295 -145&#10;c-720 -353 -1051 -512 -1068 -512 -9 0 -94 37 -189 82 l-172 83 -1 212 0 212&#10;48 -20 c26 -11 98 -43 159 -71 l113 -51 152 71 c299 137 945 431 1098 499&#10;l155 69 3 71 3 72 -128 41 c-70 23 -256 84 -413 135 -370 121 -609 195 -633&#10;195 -19 0 -298 -107 -456 -175 -46 -19 -86 -35 -91 -35 -9 0 -20 74 -13 98 2&#10;9 46 44 96 77 50 33 126 86 169 118 l79 58 -53 49 c-29 28 -56 50 -59 50 -9 0&#10;-159 -98 -192 -126 -16 -13 -32 -24 -37 -24 -5 0 -10 72 -12 161 -3 155 -4&#10;161 -27 180 -22 18 -70 24 -99 12z m1132 -649 c232 -75 471 -152 531 -171 61&#10;-19 113 -38 117 -41 3 -4 -116 -63 -265 -132 -150 -68 -342 -156 -427 -196&#10;-85 -40 -258 -120 -385 -179 -140 -65 -237 -105 -250 -102 -11 3 -85 32 -165&#10;65 l-145 61 0 306 0 307 230 89 c127 50 250 98 275 108 25 11 49 19 54 20 5 1&#10;199 -60 430 -135z"/>
<path d="M6000 5349 c-243 -43 -387 -258 -353 -529 14 -110 45 -182 107 -248&#10;84 -90 191 -132 337 -132 87 0 210 28 224 51 8 11 -26 159 -36 159 -3 0 -26&#10;-7 -49 -15 -62 -22 -172 -20 -219 4 -85 44 -131 135 -131 261 0 138 63 244&#10;160 270 60 16 156 8 207 -18 l41 -21 26 82 c24 77 24 83 8 95 -51 38 -218 60&#10;-322 41z"/>
<path d="M9490 4895 l0 -446 113 3 112 3 2 120 c1 66 2 141 2 168 l1 47 140 0&#10;140 0 0 80 0 80 -145 0 -146 0 3 113 3 112 163 3 162 2 0 80 0 80 -275 0 -275&#10;0 0 -445z"/>
<path d="M10652 5248 l-50 -93 93 -3 92 -3 66 68 c36 37 75 80 87 96 l21 27&#10;-129 0 -130 0 -50 -92z"/>
<path d="M8283 5248 l-93 -31 0 -74 0 -74 -31 5 c-53 8 -59 1 -59 -75 l0 -69&#10;44 0 45 0 3 -194 c3 -178 5 -197 24 -222 44 -60 67 -69 172 -69 59 0 110 5&#10;129 14 31 13 32 15 27 60 -11 92 -8 89 -62 83 -75 -7 -82 8 -82 185 l0 143 70&#10;0 71 0 -3 73 -3 72 -67 0 -68 0 0 103 c0 75 -3 102 -12 101 -7 -1 -55 -15&#10;-105 -31z"/>
<path d="M7163 5075 c-104 -29 -149 -62 -125 -90 5 -6 17 -32 26 -58 10 -26&#10;21 -46 25 -44 57 31 115 50 162 54 52 5 60 3 83 -20 14 -14 26 -37 26 -50 0&#10;-23 -4 -24 -75 -30 -82 -7 -169 -34 -214 -66 -58 -42 -87 -147 -60 -218 15&#10;-42 68 -92 109 -103 85 -24 165 -8 227 44 l32 27 3 -33 3 -33 92 -3 92 -3 -5&#10;198 c-2 109 -7 220 -9 247 -6 67 -45 129 -102 163 -41 24 -59 28 -143 30 -61&#10;2 -114 -2 -147 -12z m197 -390 c0 -63 -32 -95 -93 -95 -51 0 -67 13 -67 55 0&#10;48 52 82 128 84 32 1 32 0 32 -44z"/>
<path d="M7945 5074 c-16 -9 -45 -32 -62 -52 l-33 -37 0 48 0 47 -100 0 -100&#10;0 0 -315 0 -316 108 3 107 3 5 186 c5 169 7 189 25 209 31 35 74 52 116 48&#10;l39 -4 0 98 0 98 -37 0 c-21 -1 -51 -8 -68 -16z"/>
<path d="M8775 5077 c-93 -31 -136 -68 -182 -157 -25 -50 -28 -65 -28 -155 0&#10;-83 4 -108 23 -150 53 -114 140 -166 292 -173 79 -3 104 0 151 17 75 28 132&#10;80 166 149 25 51 28 68 28 157 0 83 -4 108 -23 150 -29 64 -74 110 -137 143&#10;-42 22 -65 26 -150 29 -64 2 -115 -2 -140 -10z m180 -159 c38 -30 55 -76 55&#10;-153 0 -36 -6 -80 -14 -99 -27 -65 -90 -92 -151 -64 -87 39 -94 254 -11 320&#10;30 25 87 23 121 -4z"/>
<path d="M10394 5076 c-17 -8 -45 -31 -62 -52 l-32 -39 0 48 0 48 -97 -3 -98&#10;-3 2 -310 1 -310 106 -3 106 -3 0 177 c0 199 8 231 65 258 18 9 51 16 74 16&#10;l41 0 0 95 0 95 -37 0 c-21 -1 -52 -7 -69 -14z"/>
<path d="M11071 5079 c-51 -15 -118 -65 -152 -112 -43 -60 -62 -135 -57 -226&#10;8 -129 60 -214 163 -269 46 -25 60 -27 165 -27 112 0 117 1 178 34 98 53 149&#10;136 159 260 12 141 -51 262 -165 318 -49 24 -70 28 -157 30 -55 1 -115 -2&#10;-134 -8z m191 -166 c37 -39 48 -74 48 -149 0 -110 -44 -174 -120 -174 -50 0&#10;-84 29 -104 87 -30 87 -15 185 34 235 40 39 105 40 142 1z"/>
<path d="M6350 4866 c0 -229 8 -295 43 -348 31 -46 98 -78 164 -78 64 0 107&#10;16 156 60 l37 32 0 -41 0 -41 95 0 95 0 0 315 0 315 -105 0 -105 0 0 -209 c0&#10;-196 -1 -210 -21 -235 -32 -41 -114 -34 -135 11 -5 10 -11 110 -14 223 l-5&#10;205 -102 3 -103 3 0 -215z"/>
<path d="M10570 4765 l0 -315 110 0 110 0 0 315 0 315 -110 0 -110 0 0 -315z"/>
</g>
</svg>